<svg width="18" height="21" viewBox="0 0 18 21" fill="none" xmlns="http://www.w3.org/2000/svg">
<path d="M4.25005 20.1875C3.18755 20.1875 2.18755 19.75 1.50005 19.0625C0.778345 18.3165 0.374878 17.3192 0.374878 16.2812C0.374878 15.2433 0.778345 14.246 1.50005 13.5L9.75005 5.1875C10.25 4.6875 10.875 4.4375 11.5 4.4375C12.1875 4.4375 12.8125 4.6875 13.25 5.1875C13.75 5.6875 14 6.3125 14 6.9375C14 7.5625 13.75 8.25 13.25 8.6875L7.62505 14.3125L6.93755 13.625L12.5625 8C12.875 7.6875 13 7.3125 13 6.875C13 6.4375 12.8125 6.0625 12.5625 5.75C12.25 5.4375 11.875 5.3125 11.4375 5.3125C11 5.3125 10.625 5.5 10.3125 5.75L2.12505 14.125C0.937548 15.3125 0.937548 17.1875 2.12505 18.375C2.68755 18.9375 3.43755 19.25 4.25005 19.25C5.06255 19.25 5.81255 18.9375 6.37505 18.375L15.5 9.25C17.1875 7.5625 17.1875 4.8125 15.5 3.125C14.6875 2.3125 13.5625 1.875 12.4375 1.875C11.25 1.875 10.1875 2.3125 9.37505 3.125L3.25005 9.25L2.56255 8.5625L8.68755 2.375C9.68755 1.375 11 0.8125 12.4375 0.8125C13.875 0.8125 15.1875 1.375 16.1875 2.375C18.25 4.4375 18.25 7.8125 16.1875 9.875L7.00005 19C6.25005 19.75 5.25005 20.1875 4.25005 20.1875Z" fill="#262626"/>
</svg>
