<svg width="20" height="19" viewBox="0 0 20 19" fill="none" xmlns="http://www.w3.org/2000/svg">
<path d="M19.5857 8.85095L1.01474 0.279733C0.719033 0.14545 0.366184 0.225448 0.160475 0.479728C0.0598159 0.602896 0.00341386 0.756288 0.000305631 0.915325C-0.0028026 1.07436 0.0475629 1.22984 0.143332 1.35685L6.25033 9.49951L0.143332 17.6422C-0.0538057 17.9036 -0.046663 18.2664 0.159046 18.5193C0.297614 18.6921 0.504752 18.785 0.714747 18.785C0.816173 18.785 0.917599 18.7636 1.01331 18.7193L19.5843 10.1481C19.8386 10.0309 20 9.77807 20 9.49951C20 9.22094 19.8386 8.96809 19.5857 8.85095Z" fill="#FFD869"/>
</svg>
